<svg width="200" height="214" viewBox="0 0 200 214" fill="none" xmlns="http://www.w3.org/2000/svg">
<path d="M54.818 47.9657H3.88145e-06V92.9336C11.4204 82.3697 35.4176 60.0856 40.0428 55.4604C45.6103 49.8929 51.8201 48.5367 54.818 47.9657Z" fill="url(#paint0_linear_7_2)"/>
<path fill-rule="evenodd" clip-rule="evenodd" d="M200 0H11.7773C11.7773 0 1.26147e-05 -4.08426e-06 3.88145e-06 13.4904C-4.85181e-06 26.9807 3.88145e-06 47.9657 3.88145e-06 47.9657H54.818H158.536C167.452 47.9657 175.033 48.8223 181.709 37.2591L200 0Z" fill="url(#paint1_linear_7_2)"/>
<path d="M0 180.942V120.129C0 113.919 7.70878 107.709 26.3383 92.0771L37.9015 82.227C43.8972 76.2313 52.0343 77.0878 59.5289 77.0878H149.036L133.405 109.422C128.583 117.773 126.981 124.625 111.991 124.625H62.3126C54.6038 124.625 51.8201 127.623 46.2527 132.762L0 180.942Z" fill="url(#paint2_linear_7_2)"/>
<path d="M32.9764 213.919L0 180.942L47.5375 131.263C53.1049 125.696 57.3876 124.625 60.8137 124.625H80.9422C75.803 124.625 70.006 132.548 67.3063 137.224C64.6066 141.9 32.9764 213.919 32.9764 213.919Z" fill="url(#paint3_linear_7_2)"/>
<defs>
<linearGradient id="paint0_linear_7_2" x1="22.043" y1="81.9465" x2="140.549" y2="-36.5591" gradientUnits="userSpaceOnUse">
<stop stop-color="#70E1F5"/>
<stop offset="1" stop-color="#4068B2"/>
</linearGradient>
<linearGradient id="paint1_linear_7_2" x1="22.043" y1="81.9465" x2="140.549" y2="-36.5591" gradientUnits="userSpaceOnUse">
<stop stop-color="#70E1F5"/>
<stop offset="1" stop-color="#4068B2"/>
</linearGradient>
<linearGradient id="paint2_linear_7_2" x1="22.5699" y1="180.942" x2="131.049" y2="72.4628" gradientUnits="userSpaceOnUse">
<stop stop-color="#4BD9F2"/>
<stop offset="1" stop-color="#FFD194"/>
</linearGradient>
<linearGradient id="paint3_linear_7_2" x1="11.9914" y1="148.822" x2="59.1006" y2="197.002" gradientUnits="userSpaceOnUse">
<stop stop-color="#398193"/>
<stop offset="1" stop-color="#0BAED4"/>
</linearGradient>
</defs>
</svg>
